<?xml version="1.0" encoding="utf-8"?>
<!-- Generator: Adobe Illustrator 15.1.0, SVG Export Plug-In . SVG Version: 6.00 Build 0)  -->
<!DOCTYPE svg PUBLIC "-//W3C//DTD SVG 1.1//EN" "http://www.w3.org/Graphics/SVG/1.1/DTD/svg11.dtd">
<svg version="1.1" id="Layer_1" xmlns="http://www.w3.org/2000/svg" xmlns:xlink="http://www.w3.org/1999/xlink" x="0px" y="0px"
	 width="256px" height="256px" viewBox="0 0 256 256" enable-background="new 0 0 256 256" xml:space="preserve">
<g>
	<g opacity="0.7">
		<g>
			<defs>
				<rect id="SVGID_1_" x="108.634" y="174.332" width="29.668" height="17.483"/>
			</defs>
			<clipPath id="SVGID_2_">
				<use xlink:href="#SVGID_1_"  overflow="visible"/>
			</clipPath>
			<path clip-path="url(#SVGID_2_)" fill="#BC9F82" d="M138.303,183.729v0.038c-1.319,2.096-5.86,8.048-14.833,8.048h-0.078
				c-8.518-0.037-13.48-6.213-14.755-8.006c0.297-1.796,0.563-3.701,0.749-5.69c0.11-1.208,0.228-2.391,0.33-3.631
				c4.169,1.052,8.684,1.68,13.528,1.754h0.149c4.959-0.074,9.538-0.749,13.818-1.91c0.122,1.208,0.231,2.401,0.34,3.56
				C137.78,179.952,138.006,181.904,138.303,183.729"/>
		</g>
	</g>
	<path fill="#3C4C82" d="M254.902,127.956C254.902,57.869,198.086,1.053,128,1.053S1.097,57.869,1.097,127.956
		c0,42.296,20.698,79.751,52.512,102.811c2.611-7.632,6.395-13.543,10.614-18.108c0.005-0.005,0.011-0.011,0.016-0.018
		c8.169-8.835,17.948-12.654,23.954-14.257c3.391-0.915,5.593-1.111,5.593-1.111c3.309,0,5.771-2.471,7.52-6.516
		c0.565-1.263,1.072-2.669,1.508-4.234c0.305-0.987,0.558-2.009,0.756-3.117c0.407-1.831,0.755-3.777,1.004-5.797
		c0.16-1.226,0.305-2.433,0.461-3.695c0.65-6.134,0.841-12.552,0.841-18.877c0,0,9.656,0.964,17.432,0.964h0.146
		c7.779,0,17.477-0.964,17.477-0.964c0,6.288,0.213,12.757,0.855,18.845c0.148,1.227,0.175,2.379,0.337,3.567
		c0.301,2.088-0.125,4.018,0.875,5.877v0.043c0,0.836,0.477,1.595,0.686,2.361c0.488,1.862,1.104,3.584,1.818,5.06
		c0.037,0.084,0.107,0.156,0.145,0.235c0.092,0.035,0.202,0.092,0.302,0.229c1.798,4.043,4.325,6.02,7.587,6.02
		c0,0,4.66,0.417,10.943,2.859c10.381,4.026,25.134,13.508,30.662,35.514C231.025,213.226,254.902,173.382,254.902,127.956z"/>
	<path fill="#DCC5A1" d="M64.223,212.658c-4.219,4.565-8.003,10.477-10.614,18.108c0.008,0.008,0.016,0.013,0.024,0.02
		C56.227,223.145,60.004,217.227,64.223,212.658z"/>
	<path fill="#DCC5A1" d="M83.389,199.948c1.763-0.677,3.385-1.183,4.804-1.564c-6.006,1.603-15.785,5.422-23.954,14.257
		C70.476,205.894,77.667,202.077,83.389,199.948z"/>
	<path fill="#DCC5A1" d="M101.311,204.896c7.563,1.717,15.689,2.811,21.689,2.944v-52.342c-8,0-17.278-0.712-17.278-0.712
		c0,6.322-0.112,12.992-0.763,19.126c-0.156,1.263-0.262,2.47-0.422,3.695c-0.249,2.02-0.579,3.966-0.986,5.797
		c-0.197,1.108-0.442,2.13-0.747,3.117c-0.437,1.565-1.014,2.972-1.578,4.234L101.311,204.896L101.311,204.896z"/>
	<path fill="#EDD9B4" d="M124.558,207.868c6.583,0.04,13.438-0.799,20.114-2.223l0.284-15.415c0.221,0.771,0.461,0.705,0.704,0.794
		c-0.038-0.079-0.069-0.151-0.106-0.235c-0.712-1.476-1.385-3.197-1.873-5.06c-0.209-0.767-0.681-1.525-0.681-2.361v-0.043
		c-1-1.859-0.574-3.852-0.875-5.939c-0.162-1.188-0.248-2.404-0.396-3.629c-0.643-6.09-0.828-12.433-0.828-18.721
		c0,0-9.666,0.964-17.445,0.964H123v51.841C123,207.851,124.096,207.868,124.558,207.868z"/>
	<path fill="#895A59" d="M101.311,204.896l20.202,49.805c0.52,0.027,1.487,0.043,1.487,0.06v-46.92
		C117,207.707,108.874,206.613,101.311,204.896z"/>
	<path fill="#895A59" d="M124.558,207.868c-0.462,0-1.558-0.018-1.558-0.027v46.92c0,0.013,0.744,0.025,1.039,0.035l20.556-49.15
		C137.919,207.069,131.141,207.908,124.558,207.868z"/>
	<path fill="#FFFFFF" d="M164.482,200.132c-6.279-2.442-10.938-2.859-10.938-2.859c-3.262,0-5.782-1.977-7.577-6.02
		c-0.103-0.137-0.196-0.193-0.288-0.229c1.791,3.901,4.207,6.248,7.408,6.248c0,0,32.859,3.004,41.677,38.613
		c0.127-0.079,0.256-0.161,0.382-0.24C189.616,213.64,174.865,204.158,164.482,200.132z"/>
	<path fill="#FFFFFF" d="M144.995,190.23l-0.245,15.415l-0.728,48.208c18.441-2.324,35.645-8.609,50.742-17.968
		c-8.817-35.609-41.677-38.613-41.677-38.613c-3.201,0-5.617-2.347-7.408-6.248C145.437,190.936,145.216,191.002,144.995,190.23z"/>
	<path fill="#FFFFFF" d="M124.194,254.796c1.264,0.037,2.531,0.062,3.805,0.062c5.427,0,10.775-0.342,16.023-1.004l0.728-48.208
		L124.194,254.796z"/>
	<path fill="#FFFFFF" d="M88.193,198.384c3.4-0.908,5.593-1.111,5.593-1.111S91.583,197.469,88.193,198.384z"/>
	<path fill="#FFFFFF" d="M64.223,212.658c0.005-0.005,0.011-0.011,0.016-0.018C64.234,212.647,64.229,212.653,64.223,212.658z"/>
	<path fill="#FFFFFF" d="M101.935,252.225L101.462,205c0.001,0,0.002,0,0.002,0l0,0l-0.159-14.191
		c-1.749,4.043-4.211,6.49-7.52,6.49c0,0-2.193,0.188-5.593,1.096c-1.419,0.385-3.041,0.885-4.804,1.559
		c-5.722,2.131-12.913,5.943-19.149,12.692c-0.005,0.005-0.011,0.008-0.016,0.016c-4.219,4.568-7.996,10.508-10.59,18.15
		C67.81,241.082,84.191,248.52,101.935,252.225z"/>
	<path fill="#FFFFFF" d="M101.462,205l0.473,47.225c6.438,1.344,13.054,2.229,19.809,2.557L101.465,205
		C101.465,205,101.464,205,101.462,205z"/>
	<path fill="#0F0F0F" d="M178.373,144.633c0,0-3.19-4.023-1.298-29.733c0.942-12.824-1.436-25.184-2.033-28.003
		c0.188,0.741-18.449,37.504-18.449,37.504c-0.635,10.276-1.158,20.3-1.284,27.264l-3.118-5.32c0,0-2.664,8.769-3.043,12.248
		c-0.021,0.188-0.021,0.397-0.04,0.596l-10.05-9.986c0,0,0.015,5.718,0.522,11.14l-6.089-6.045c0,0,0.05,14.714,2.086,19.319
		c2.287,5.187,0.226,19.537,0.226,19.537c2.773-3.457,4.742-7.146,6.154-10.647c-0.243,3.187-0.588,5.573-0.588,5.573
		c4.286-5.357,6.649-11.229,8.006-16.142c0.137,2.212,0.264,4.422,0.288,6.619c0.116,6.858-2.476,13.724-2.476,13.724
		s5.395-7.408,8.374-19.669c0.538,9.007,1.84,15.542,4.571,19.047c-0.355-0.628-1.736-3.562-1.399-11.209
		c0.139-3.438,0.462-7.168,0.876-10.894c2.133,9.69,8.393,15.096,8.393,15.096s-4.786-10.79-3.244-24.044
		c0.323-2.685,0.565-5.038,0.76-7.158c0.136,3.681,0.528,7.854,1.429,12.213c2.289,10.987,6.979,17.243,6.979,17.243
		s-4.51-9.969-0.38-36.965c0.317-2.078,0.327-5.074,0.208-8.299C176.324,143.728,178.373,144.633,178.373,144.633"/>
	<path fill="#0F0F0F" d="M68.087,143.115c0,0,3.188-4.026,1.302-29.723c-0.955-12.826,1.434-25.183,2.02-28.013
		c-0.187,0.744,18.449,37.51,18.449,37.51c0.643,10.271,1.167,20.302,1.291,27.267l3.113-5.325c0,0,2.663,8.775,3.041,12.238
		c0.022,0.198,0.03,0.414,0.046,0.607l10.063-9.988c0,0-0.034,5.712-0.542,11.134l6.099-6.049c0,0-0.057,14.73-2.093,19.334
		c-2.288,5.182-0.221,19.532-0.221,19.532c-2.781-3.473-4.748-7.141-6.159-10.641c0.243,3.165,0.595,5.551,0.595,5.551
		c-4.303-5.343-6.66-11.218-8.024-16.132c-0.117,2.218-0.253,4.433-0.273,6.625c-0.104,6.849,2.468,13.727,2.468,13.727
		s-5.393-7.417-8.364-19.672c-0.541,9.011-1.843,15.547-4.583,19.046c0.367-0.619,1.745-3.576,1.408-11.218
		c-0.138-3.433-0.459-7.158-0.875-10.889c-2.134,9.7-8.402,15.085-8.402,15.085s4.796-10.767,3.244-24.026
		c-0.313-2.688-0.558-5.035-0.751-7.163c-0.136,3.683-0.527,7.857-1.435,12.208c-2.283,10.997-6.976,17.24-6.976,17.24
		s4.514-9.968,0.386-36.959c-0.321-2.061-0.33-5.069-0.22-8.294C70.126,142.225,68.087,143.115,68.087,143.115"/>
	<path fill="#CCAD8B" d="M123.108,43.814c-56.737,0-57.057,47.325-54.536,78.298c-3.887-7.346-15.396-5.08-14.456,6.495
		c0.907,11.137,17.168,16.894,16.942,15.602c4.646,25.492,31.352,40.205,52.049,40.205c0.141,0,0.288-0.015,0.43-0.015V43.814
		H123.108z"/>
	<path fill="#BC9F82" d="M57.743,123.712c2.805-4.466,7.124-2.543,8.189-1.559c1.137,1.069,2.023,2.495,1.324,5.13
		c-0.391,1.487-1.958,1.6-1.567,3.859c0.407,2.542,1.592,2.706,2.26,3.278c0.662,0.576,1.5,1.015,1.91,2.086
		c0.407,1.072,0.489,2.208,0.25,3.19c-0.421,1.828-3.104,0.377-4.882-0.439c-1.181-0.533-4.922-3.681-5.867-4.752
		C56.967,131.837,55.863,126.68,57.743,123.712"/>
	<path fill="#D9BF9F" d="M123.382,43.814c56.739,0,57.064,47.325,54.542,78.298c3.889-7.346,15.4-5.08,14.45,6.495
		c-0.908,11.137-17.169,16.894-16.94,15.602c-4.658,25.492-31.349,40.205-52.051,40.205c-0.133,0-0.289-0.015-0.433-0.015V43.814
		H123.382z"/>
	<path fill="#BC9F82" d="M188.755,123.712c-2.805-4.466-7.131-2.543-8.199-1.559c-1.124,1.069-2.02,2.495-1.322,5.13
		c0.399,1.487,1.967,1.6,1.582,3.859c-0.414,2.542-1.6,2.706-2.279,3.278c-0.647,0.576-1.488,1.015-1.904,2.086
		c-0.397,1.072-0.486,2.208-0.243,3.19c0.424,1.828,3.103,0.377,4.884-0.439c1.183-0.533,4.928-3.681,5.865-4.752
		C189.534,131.837,190.628,126.68,188.755,123.712"/>
	<path fill="#DCC5A1" d="M122.615,57.151c-18.669,0-32.336,5.402-40.603,16.069c-11.543,14.884-11.104,37.638-6.838,53.973
		c1.29,4.991,1.958,18.437,2.866,23.377c4.029,22.093,28.478,33.844,44.575,33.844c0.141,0,0.297-0.015,0.439-0.015V57.167
		C122.904,57.167,122.761,57.151,122.615,57.151"/>
	<path fill="#EDD9B4" d="M163.129,73.243c-8.2-10.595-21.713-15.994-40.077-16.078v127.234
		c18.386-0.198,40.357-13.086,44.134-33.824c0.896-4.938,1.57-18.394,2.869-23.383C174.303,110.905,174.719,88.182,163.129,73.243"
		/>
	<g>
		<path fill="#433F3A" d="M147.941,201.209c-5.523,0.022-11.699,0.31-15.921,2.276c-3.386,1.58-4.44,2.609-6.35,3.408
			c-0.693-1.049-1.771-1.731-2.986-1.731c-1.011,0-1.926,0.477-2.607,1.238c-0.233,0.116-0.396,0.313-0.391,0.508
			c-0.011,0.018-0.023,0.04-0.031,0.055c-2.024-0.809-3.03-1.853-6.519-3.478c-4.221-1.967-10.393-2.254-15.918-2.276
			c-4.669,0.469,0.241,2.877,0.557,8.194c0.358,5.973-3.229,5.43-0.699,8.076c6.212,0.831,11.562-0.293,16.028-2.113
			c1.685-0.694,2.881-1.424,4-2.088c0.456-0.204,1.617-0.357,2.97-0.444c0.678,0.767,1.597,1.235,2.61,1.235
			c1.007,0,1.921-0.462,2.596-1.218c1.271,0.084,2.343,0.232,2.777,0.427c1.118,0.664,2.314,1.394,3.999,2.088
			c4.469,1.82,9.816,2.944,16.027,2.113c2.527-2.646-0.746-1.337-0.704-8.076C147.421,203.58,152.609,201.678,147.941,201.209z"/>
		<polygon fill="#F1F8F8" points="122.448,207.357 122.785,207.881 123.539,207.965 122.993,208.364 123.125,208.939 
			122.448,208.67 121.774,208.939 121.903,208.364 121.354,207.965 122.108,207.881 		"/>
		<g>
			<polygon fill="#F1F8F8" points="126.075,210.192 126.412,210.713 127.167,210.795 126.622,211.199 126.747,211.772 
				126.075,211.502 125.402,211.772 125.529,211.199 124.982,210.795 125.735,210.713 			"/>
			<polygon fill="#F1F8F8" points="129.036,207.055 129.374,207.57 130.128,207.657 129.58,208.062 129.717,208.632 
				129.036,208.364 128.364,208.632 128.49,208.062 127.943,207.657 128.699,207.57 			"/>
			<polygon fill="#F1F8F8" points="131.616,212.025 131.956,212.549 132.708,212.628 132.164,213.032 132.296,213.607 
				131.616,213.335 130.941,213.607 131.07,213.032 130.527,212.628 131.281,212.549 			"/>
			<polygon fill="#F1F8F8" points="133.338,208.263 133.678,208.786 134.429,208.865 133.883,209.27 134.01,209.845 
				133.338,209.575 132.668,209.845 132.792,209.27 132.246,208.865 133.003,208.786 			"/>
			<polygon fill="#F1F8F8" points="133.338,204.316 133.678,204.837 134.429,204.924 133.883,205.323 134.01,205.899 
				133.338,205.626 132.668,205.899 132.792,205.323 132.246,204.924 133.003,204.837 			"/>
			<polygon fill="#F1F8F8" points="138.69,203.235 139.03,203.756 139.781,203.835 139.235,204.242 139.367,204.817 138.69,204.545 
				138.018,204.817 138.146,204.242 137.602,203.835 138.355,203.756 			"/>
			<polygon fill="#F1F8F8" points="138.69,207.474 139.03,207.997 139.781,208.076 139.235,208.483 139.367,209.052 138.69,208.786 
				138.018,209.052 138.146,208.483 137.602,208.076 138.355,207.997 			"/>
			<polygon fill="#F1F8F8" points="143.378,202.446 143.713,202.962 144.47,203.049 143.921,203.453 144.05,204.021 
				143.378,203.756 142.703,204.021 142.832,203.453 142.286,203.049 143.041,202.962 			"/>
			<polygon fill="#F1F8F8" points="144.045,207.055 144.385,207.57 145.134,207.657 144.591,208.062 144.72,208.632 
				144.045,208.364 143.37,208.632 143.494,208.062 142.954,207.657 143.705,207.57 			"/>
			<polygon fill="#F1F8F8" points="143.378,211.231 143.713,211.753 144.47,211.839 143.921,212.243 144.05,212.814 
				143.378,212.549 142.703,212.814 142.832,212.243 142.286,211.839 143.041,211.753 			"/>
			<polygon fill="#F1F8F8" points="137.602,210.869 137.938,211.391 138.69,211.47 138.146,211.877 138.278,212.452 
				137.602,212.179 136.927,212.452 137.053,211.877 136.508,211.47 137.262,211.391 			"/>
			<polygon fill="#F1F8F8" points="139.781,215.205 140.121,215.721 140.873,215.808 140.327,216.212 140.459,216.782 
				139.781,216.515 139.109,216.782 139.235,216.212 138.69,215.808 139.444,215.721 			"/>
			<polygon fill="#F1F8F8" points="145.561,214.759 145.896,215.274 146.652,215.361 146.106,215.766 146.23,216.334 
				145.561,216.068 144.884,216.334 145.01,215.766 144.47,215.361 145.224,215.274 			"/>
		</g>
		<polygon fill="#F1F8F8" points="119.031,210.192 118.692,210.713 117.938,210.795 118.485,211.199 118.354,211.772 
			119.031,211.502 119.703,211.772 119.575,211.199 120.122,210.795 119.367,210.713 		"/>
		<polygon fill="#F1F8F8" points="116.066,207.055 115.729,207.57 114.978,207.657 115.521,208.062 115.39,208.632 116.066,208.364 
			116.743,208.632 116.61,208.062 117.155,207.657 116.404,207.57 		"/>
		<polygon fill="#F1F8F8" points="113.484,212.025 113.146,212.549 112.393,212.628 112.939,213.032 112.81,213.607 
			113.484,213.335 114.159,213.607 114.03,213.032 114.573,212.628 113.821,212.549 		"/>
		<polygon fill="#F1F8F8" points="111.766,208.263 111.426,208.786 110.672,208.865 111.219,209.27 111.09,209.845 111.766,209.575 
			112.438,209.845 112.31,209.27 112.856,208.865 112.103,208.786 		"/>
		<polygon fill="#F1F8F8" points="111.766,204.316 111.426,204.837 110.672,204.924 111.219,205.323 111.09,205.899 
			111.766,205.626 112.438,205.899 112.31,205.323 112.856,204.924 112.103,204.837 		"/>
		<polygon fill="#F1F8F8" points="106.413,203.235 106.076,203.756 105.319,203.835 105.866,204.242 105.737,204.817 
			106.413,204.545 107.083,204.817 106.957,204.242 107.502,203.835 106.748,203.756 		"/>
		<polygon fill="#F1F8F8" points="106.413,207.474 106.076,207.997 105.319,208.076 105.866,208.483 105.737,209.052 
			106.413,208.786 107.083,209.052 106.957,208.483 107.502,208.076 106.748,207.997 		"/>
		<polygon fill="#F1F8F8" points="100.924,202.446 100.588,202.962 99.833,203.049 100.381,203.453 100.25,204.021 100.924,203.756 
			101.597,204.021 101.47,203.453 102.016,203.049 101.259,202.962 		"/>
		<polygon fill="#F1F8F8" points="101.061,207.055 100.72,207.57 99.967,207.657 100.514,208.062 100.384,208.632 101.061,208.364 
			101.733,208.632 101.604,208.062 102.149,207.657 101.396,207.57 		"/>
		<polygon fill="#F1F8F8" points="101.728,211.231 101.391,211.753 100.637,211.839 101.182,212.243 101.051,212.814 
			101.728,212.549 102.402,212.814 102.272,212.243 102.82,211.839 102.063,211.753 		"/>
		<polygon fill="#F1F8F8" points="107.502,210.869 107.165,211.391 106.413,211.47 106.957,211.877 106.828,212.452 
			107.502,212.179 108.175,212.452 108.05,211.877 108.593,211.47 107.841,211.391 		"/>
		<polygon fill="#F1F8F8" points="105.319,215.205 104.982,215.721 104.23,215.808 104.774,216.212 104.646,216.782 
			105.319,216.515 105.994,216.782 105.866,216.212 106.413,215.808 105.659,215.721 		"/>
		<polygon fill="#F1F8F8" points="99.544,214.759 99.208,215.274 98.454,215.361 99,215.766 98.871,216.334 99.544,216.068 
			100.22,216.334 100.092,215.766 100.637,215.361 99.884,215.274 		"/>
	</g>
	<path fill="#D3915F" d="M115.896,144.393c-0.046,0.888,3.567,2.061,7.353,2.254c3.783,0.193,7-0.88,7.047-1.769
		c0.024-0.493-0.633-0.972-2.506-1.066c-1.225-0.069-2.989,1.804-4.698,1.722c-1.82-0.095-3.677-2.518-4.918-2.31
		C116.837,143.455,115.92,143.926,115.896,144.393"/>
	<g>
		<path fill="#D1816F" d="M132.003,166.043c0.087-0.251,0.685-0.633,0-0.722c-1.471-0.193-3.386-1.057-4.997-1.434
			c-0.668-0.156-1.828-0.454-2.449-0.174c-0.466,0.216-0.851,0.414-1.359,0.466c-0.545,0.058-0.945-0.448-1.484-0.543
			c-2.34-0.39-5.393,1.783-7.572,1.062c-0.155,0.209-0.292,0.439-0.101,0.613c0.191,0.178,1.855,1.642,2.627,2.088
			c0.537,0.308,2.499,1.553,3.118,1.58c1.166,0.052,5.065,0.161,6.233,0.1c1.28-0.069,2.171-0.896,3.065-1.533
			C129.518,167.236,131.118,166.378,132.003,166.043"/>
		<path fill="#B76255" d="M133.159,165.086c-0.789-0.388-2.071,0.104-2.941,0.24c-1.307,0.206-2.639-0.459-3.94-0.219
			c-1.138,0.209-2.138,1.1-3.293,1.01c-0.771-0.057-1.445-0.551-2.2-0.717c-1.002-0.221-2.034,0.142-3.061,0.174
			c-0.849,0.02-1.699-0.191-2.438-0.603c-0.285-0.161-0.566-0.357-0.89-0.395c-0.325-0.035-0.707,0.163-0.729,0.493
			c-0.03,0.425,0.509,0.633,0.933,0.692c2.359,0.303,5.06-0.367,7.282,0.469c0.372,0.142,0.978,0.357,1.385,0.353
			c0.465-0.006,1.072-0.399,1.506-0.571c2.464-0.954,4.59-0.032,7.231,0.03C132.318,166.048,133.399,165.693,133.159,165.086"/>
	</g>
	<path fill="#0F0F0F" d="M66.373,109.584c0.86,10.106,1.729,20.254,3.97,30.141c0.475-2.667,0.952-5.333,1.425-7.997
		c0.094-0.516,0.196-1.062,0.551-1.446c0.286-0.314,0.698-0.48,1.03-0.743c0.705-0.557,0.985-1.483,1.218-2.349
		c1.346-4.985,2.449-10.034,3.304-15.125c-2.8-0.016-5.599-0.244-8.363-0.694c-0.774-0.124-1.789-0.79-1.325-1.426"/>
	<path fill="#0F0F0F" d="M152.825,46.657c-6.024-5.488-16.303-8.249-24.396-9.243c0.827,1.126,1.815,2.125,2.929,2.966
		c-1.327,0.184-2.717-0.085-3.885-0.747c-0.107,0.746-0.217,1.491-0.325,2.24c-6.235-0.459-12.306-2.938-17.083-6.968
		c0.429,1.938,1.187,3.804,2.239,5.486c-1.124-0.181-2.25-0.366-3.371-0.546c0.611,0.888,1.224,1.778,1.835,2.667
		c-14.349-2.021-15.581,3.611-22.546,5.002c2.299,0.499,6.354-0.163,7.812,0.444C71.832,52.198,62.861,70.829,57.78,72.495
		c7.809,0.779,10.581-4.541,12.088-3.88C67.792,68.786,59.074,75.057,57,75.229c0.992,0.613,9.154-2.178,10.145-1.564
		c-3.294,1.357-13.614,4.822-17.17,5.076c2.677,2.478,11.645-0.372,14.322,2.109C60.895,80.572,42.485,79.793,41,79.91
		c2.762,4.208,19.495,13.204,24.439,14.161c4.941,0.957,10.055,0.449,15.013-0.438c25.106-4.502,47.731-18.678,65.898-36.586
		c2.629-2.594,5.369-6.355,3.673-9.632c-0.794-0.023-1.59-0.044-2.381-0.067"/>
	<path fill="#0F0F0F" d="M150.737,73.275c-0.032,6.939,6.498,16.292,12.421,19.903c0.025-1.037-2.664-4.594-2.639-5.631
		c2.497,3.878,6.897,12.62,8.492,16.95c0.618-0.461-1.099-5.513-0.483-5.971c1.342,7.602,5.586,31.882,5.618,36.798
		c2.363-10.921,5.235-18.073,4.261-29.206l3.805,0.345c2.411-16.406-3.842-21.893-4.494-23.39c0.957-0.281,3.262,5.408,4.175,5.813
		c0.699-10.338-5.149-13.925-4.436-15.115c0.608-1.013,0.973-2.148,0.467-3.214c-4.159-8.739-11.04-19.821-16.107-21.479
		c-1.912-0.628-6.48-0.092-8.17,0.997c-3.115,2.01-0.694,6.792-0.749,9.802c-0.047,2.383-1.414,5.281-3.793,5.123"/>
	<path fill="#0F0F0F" d="M143.085,165.276l0.022,0.015c-0.022-0.049-0.037-0.094-0.064-0.153c-0.243-1.015-0.538-1.981-0.918-2.857
		c-0.255-0.563-0.545-1.087-0.846-1.567c-2.959-6.28-6.786-9.415-9.385-10.911c-0.599-0.377-1.216-0.665-1.851-0.91
		c-0.533-0.221-0.908-0.335-1.018-0.367c-0.042,0-0.08-0.01-0.08-0.01v0.005c-1.521-0.407-3.309-0.548-5.69-0.553
		c-2.391,0.005-4.184,0.146-5.707,0.553v-0.005c0,0-0.03,0.01-0.069,0.01c-0.117,0.032-0.485,0.146-1.018,0.367
		c-0.641,0.245-1.261,0.533-1.857,0.91c-2.604,1.496-6.419,4.631-9.39,10.911c-0.305,0.48-0.587,1.004-0.838,1.567
		c-0.383,0.876-0.68,1.843-0.917,2.857c-0.028,0.06-0.036,0.104-0.061,0.153l0.025-0.015c-0.337,1.437-0.533,2.986-0.533,4.628
		c0,2.957,0.594,5.678,1.58,7.828c0.935,5.494,8.974,17.839,18.786,18.012c9.803-0.173,17.837-12.518,18.774-18.012
		c0.989-2.15,1.577-4.871,1.577-7.828C143.608,168.263,143.41,166.713,143.085,165.276 M137.676,176.729
		c-2.555,1.408-6.05,2.445-10.047,2.899c0.212-0.873,0.346-1.821,0.346-2.82v-3.376c0-1.302-0.221-2.522-0.582-3.594
		c-1.347-0.226-2.727-0.362-4.136-0.362c-1.417,0-2.805,0.137-4.145,0.362c-0.362,1.071-0.59,2.292-0.59,3.594v3.376
		c0,0.999,0.135,1.947,0.345,2.82c-3.996-0.454-7.489-1.491-10.045-2.899c-0.737-1.968-1.185-4.297-1.185-6.824
		c0-1.046,0.087-2.038,0.236-3.003c0.103-0.082,1.937-1.59,5.22-2.862c4.351-1.689,11.246-2.967,19.989,0.069
		c1.759,0.6,3.592,1.396,5.494,2.386c0.181,1.076,0.293,2.225,0.293,3.41C138.869,172.432,138.422,174.761,137.676,176.729"/>
	<g>
		<path fill="#FFFFFF" d="M138.104,124.714c1.277-1.379,3.339-2.739,5.254-3.681c3.856-1.901,7.002-1.277,8.415-1.232
			c2.603,0.083,5.162,1.145,7.052,2.925c0.931,0.872,1.751,1.938,2.939,2.394c-1.64,0.788-4.011,2.344-5.797,2.707
			c-6.211,1.262-11.982-1.153-18.136-2.66c0.285-0.017,0.568-0.035,0.854-0.052"/>
		<path fill="#DBD8BD" d="M158.957,124.858c-1.896-1.781-4.455-2.841-7.055-2.925c-1.418-0.043-4.561-0.668-8.42,1.232
			c-1.293,0.634-2.642,1.463-3.783,2.357c-0.6-0.162-1.202-0.322-1.811-0.471c0.285-0.015,0.151,0.018,0.435,0l-0.841-0.209
			c1.279-1.379,4.018-2.981,5.931-3.923c3.859-1.901,7.002-1.276,8.42-1.231c2.603,0.083,5.154,1.144,7.052,2.926
			c0.93,0.869,1.746,1.938,2.937,2.392c-0.528,0.253-1.133,0.589-1.771,0.935C159.684,125.583,159.326,125.207,158.957,124.858"/>
		<path fill="#351807" d="M156.271,123.884c0.008-2.743-2.212-4.972-4.953-4.977c-2.743-0.007-4.971,2.211-4.978,4.955
			c-0.006,2.741,2.212,4.967,4.955,4.975C154.033,128.843,156.263,126.626,156.271,123.884"/>
		<path fill="#542913" d="M154.52,125.06c0-1.434-1.434-2.597-3.212-2.602c-1.771-0.003-3.215,1.153-3.217,2.584
			c-0.003,1.435,1.431,2.6,3.207,2.604C153.073,127.651,154.515,126.493,154.52,125.06"/>
		<path d="M153.289,123.877c0.005-1.098-0.883-1.988-1.981-1.99c-1.094-0.004-1.984,0.884-1.989,1.981
			c0,1.095,0.883,1.988,1.981,1.991C152.396,125.861,153.289,124.972,153.289,123.877"/>
		<path fill="#FFFFFF" d="M150.531,122.902c0.002-0.548-0.441-0.994-0.99-0.995c-0.548,0-0.991,0.442-0.991,0.993
			c-0.003,0.547,0.438,0.991,0.986,0.991C150.087,123.895,150.531,123.45,150.531,122.902"/>
		<path fill="#110804" d="M138.104,124.714c2.952-2.426,7.672-4.544,7.672-4.544s8.175-1.038,12.158,2.08
			c0.839,0.658,2.867,2.468,2.867,2.468s1.588-0.165,2.488-0.244c-0.243-0.734-0.952-2.204-3.753-4.189
			c-3.167-2.249-14.051-2.017-14.051-2.017s-6.24,4.466-8.292,6.507"/>
		<path fill="#875431" d="M160.802,124.718c-1.482,0.863-1.158,1.003-2.771,1.578c-2.748,0.979-5.583,1.566-8.47,1.19
			c-2.885-0.376-6.407-0.935-9.197-1.769c-0.9-0.269-2.48-1.287-3.17-0.94c0.188,0.467,0.828,0.652,1.305,0.822
			c3.835,1.38,8.049,3.156,12.114,3.449c2.252,0.161,4.549-0.021,6.685-0.768c2.128-0.745,4.71-1.951,5.992-3.81"/>
	</g>
	<g>
		<path fill="#FFFFFF" d="M108.343,124.714c-1.277-1.379-3.336-2.739-5.25-3.681c-3.857-1.901-7.002-1.277-8.418-1.232
			c-2.601,0.083-5.159,1.145-7.054,2.925c-0.928,0.872-1.748,1.938-2.935,2.394c1.641,0.788,4.011,2.344,5.795,2.707
			c6.209,1.262,11.983-1.153,18.134-2.66c-0.284-0.017-0.567-0.035-0.85-0.052"/>
		<path fill="#DBD8BD" d="M87.491,124.858c1.897-1.781,4.455-2.841,7.054-2.925c1.419-0.043,4.562-0.668,8.421,1.232
			c1.29,0.634,2.643,1.463,3.781,2.357c0.601-0.162,1.204-0.322,1.812-0.471c-0.285-0.015-0.151,0.018-0.434,0l0.841-0.209
			c-1.277-1.379-4.018-2.981-5.93-3.923c-3.858-1.901-7.001-1.276-8.421-1.231c-2.599,0.083-5.156,1.144-7.051,2.926
			c-0.928,0.869-1.746,1.938-2.936,2.392c0.528,0.253,1.135,0.589,1.77,0.935C86.764,125.583,87.122,125.207,87.491,124.858"/>
		<path fill="#351807" d="M90.177,123.884c-0.005-2.743,2.215-4.972,4.954-4.977c2.742-0.007,4.97,2.211,4.977,4.955
			c0.006,2.741-2.211,4.967-4.955,4.975C92.415,128.843,90.185,126.626,90.177,123.884"/>
		<path fill="#542913" d="M91.931,125.06c-0.001-1.434,1.434-2.597,3.209-2.602c1.773-0.003,3.213,1.153,3.217,2.584
			c0.005,1.435-1.433,2.6-3.207,2.604C93.377,127.651,91.935,126.493,91.931,125.06"/>
		<path d="M93.157,123.877c-0.004-1.098,0.884-1.988,1.983-1.99c1.095-0.004,1.987,0.884,1.989,1.981
			c0.002,1.095-0.883,1.988-1.982,1.991C94.051,125.861,93.161,124.972,93.157,123.877"/>
		<path fill="#FFFFFF" d="M95.916,122.902c-0.001-0.548,0.442-0.994,0.991-0.995c0.548,0,0.993,0.442,0.995,0.993
			c0.002,0.547-0.441,0.991-0.99,0.991C96.36,123.895,95.917,123.45,95.916,122.902"/>
		<path fill="#110804" d="M108.343,124.714c-2.949-2.426-7.669-4.544-7.669-4.544s-8.176-1.038-12.16,2.08
			c-0.838,0.658-2.869,2.468-2.869,2.468s-1.585-0.165-2.488-0.244c0.243-0.734,0.955-2.204,3.755-4.189
			c3.166-2.249,14.048-2.017,14.048-2.017s6.242,4.466,8.293,6.507"/>
		<path fill="#875431" d="M85.646,124.718c1.483,0.863,1.158,1.003,2.773,1.578c2.746,0.979,5.581,1.566,8.469,1.19
			c2.886-0.376,6.408-0.935,9.197-1.769c0.899-0.269,2.478-1.287,3.17-0.94c-0.19,0.467-0.83,0.652-1.306,0.822
			c-3.835,1.38-8.047,3.156-12.114,3.449c-2.252,0.161-4.55-0.021-6.682-0.768c-2.128-0.745-4.713-1.951-5.995-3.81"/>
	</g>
	<path fill="#0F0F0F" d="M155.849,61.595c-3.919,13.389-9.135,27.707-20.953,35.124c0.29-1,0.58-1.999,0.868-3
		c-5.646,8.631-16.482,11.946-26.438,14.642c2.055-0.395,3.888-1.807,4.801-3.691c-11.546,6.403-24.758,9.773-37.96,9.681
		l2.927-0.797c-12.859-0.792-25.5-4.869-36.396-11.744c1.324-0.583,2.929-0.485,4.172,0.259c-4.394-3.948-8.788-7.896-13.179-11.843
		c4.852,2.371,10.052,4.019,15.384,4.868c-1.801,0.854-4.232-0.834-4.059-2.822c1.509,0.083,3.021,0.166,4.532,0.249
		c-1.269-1.867-2.54-3.731-3.808-5.601c9.154,3.132,19.306,3.278,28.548,0.416c-4.807-1.302-9.617-2.604-14.424-3.904
		c3.438,0.496,6.976,0.299,10.336-0.574c-2.327-0.205-4.603-0.962-6.59-2.196c5.05-0.767,9.745-3.613,12.77-7.727l-7.591-0.079
		c2.459-0.883,4.829-2.015,7.059-3.375c-1.485-0.623-2.899-1.426-4.191-2.387c13.044-2.354,25.693-6.875,37.279-13.319
		c-3.103,1.37-6.649,1.698-9.948,0.928c5.273-0.945,10.543-1.886,15.817-2.828c-2.314-0.677-4.626-1.353-6.939-2.026
		c12.425,0.416,24.656-5.066,37.011-3.601c-2.277-0.102-4.524-0.772-6.483-1.93c5.641-0.754,13.714-0.083,17.198,4.415
		c3.487,4.496,1.796,12.807-1.939,17.101"/>
	<path opacity="0.61" fill="#3685B2" d="M153.223,53.798c-2.691-3.53-7.305-5.496-11.713-4.991c2.448,0.289,4.772,1.509,6.399,3.362
		c-1.93,0.03-3.861,0.063-5.791,0.094c1.503,0.273,2.795,1.477,3.175,2.953c-6.013-3.162-13.421-3.54-19.727-1.002
		c4.207,0.427,8.324,1.713,12.03,3.757c-3.307-0.115-6.641,0.746-9.476,2.449c2.057-0.24,4.17,0.016,6.112,0.735
		c-7.465,2.849-14.548,6.694-21.002,11.407c4.444-0.989,8.965-1.628,13.508-1.907c-7.811,4.749-16.397,8.222-25.316,10.24
		c3.75,0.029,7.503,0.057,11.256,0.083c-6.875,2.637-14.031,4.527-21.309,5.629c9.09,2,18.734,1.42,27.519-1.653
		c-1.798,1.102-3.594,2.202-5.391,3.301c4.065-0.384,8.051-1.608,11.632-3.58c-4.341,4.149-9.073,7.885-14.114,11.143
		c8.771-1.719,16.924-6.428,22.798-13.166c-1.009,3.318-2.522,6.479-4.474,9.344c3.665-2.393,6.932-5.378,9.647-8.812
		c-3.745,6.278-9.14,11.563-15.495,15.178c5.475-0.911,10.336-4.239,13.953-8.451c3.616-4.208,6.102-9.267,8.21-14.401
		c-0.156,2.925-1.015,5.81-2.49,8.337c2.658-2.247,3.517-5.904,4.551-9.228c1.037-3.327,2.758-6.916,6.064-8.006
		c-2.202-0.245-4.365-0.841-6.382-1.764c1.572-0.587,3.155-1.178,4.732-1.766c-1.436-0.348-2.726-1.275-3.51-2.529l4.14-0.832
		c-0.823-0.58-1.649-1.16-2.476-1.736c1.293-0.583,2.585-1.171,3.88-1.751l-1.077-2.63"/>
	<g>
		<path fill-rule="evenodd" clip-rule="evenodd" fill="#333333" d="M109.8,111.818c-5.034-1.895-10.286-2.517-16.53-2.555
			c-0.995,0.062-2.891,0.132-4.774,0.316c-5.303,0.511-16.894,1.948-21.396,4.507c-0.211,0.119-0.388,0.501-0.388,0.761
			c0,1.404,0.022,2.811,0.114,4.212c0.067,1.048,0.531,1.829,1.622,2.218c1.875,0.671,3.132,1.996,3.759,3.899
			c0.723,2.202,1.422,4.413,2.174,6.608c1.144,3.338,2.716,6.456,5.067,9.115c3.097,3.502,7.146,5.148,11.677,5.729
			c4.135,0.53,8.191,0.108,12.151-1.201c2.499-0.828,4.659-2.185,6.476-4.103c1.637-1.733,2.866-3.723,3.878-5.87
			c1.611-3.423,2.843-6.967,3.626-10.674c0.212-1.004,0.164-1.77-0.537-2.617c-1.103-1.337-0.424-3.268,1.248-3.733
			c3.461-0.962,7.746-0.962,11.204,0c1.673,0.465,2.354,2.396,1.248,3.733c-0.699,0.847-0.746,1.612-0.535,2.617
			c0.781,3.707,2.014,7.251,3.626,10.674c1.012,2.147,2.239,4.137,3.879,5.87c1.813,1.918,3.977,3.274,6.474,4.103
			c3.961,1.31,8.02,1.731,12.151,1.201c4.531-0.581,8.582-2.228,11.677-5.729c2.354-2.659,3.925-5.777,5.067-9.115
			c0.752-2.195,1.451-4.406,2.173-6.608c0.628-1.904,1.886-3.228,3.761-3.899c1.091-0.389,1.553-1.17,1.622-2.218
			c0.089-1.401,0.114-2.808,0.114-4.212c0-0.26-0.179-0.642-0.39-0.761c-4.502-2.559-16.09-3.996-21.396-4.507
			c-1.883-0.184-3.78-0.254-4.774-0.316c-6.243,0.038-11.496,0.66-16.529,2.555c-1.478,0.558-2.899,1.27-4.333,1.94
			c-0.853,0.401-1.639,0.375-2.492-0.052c-0.521-0.262-1.148-0.436-1.727-0.436c-3.475-0.008-6.958-0.008-10.434,0
			c-0.579,0-1.205,0.174-1.726,0.436c-0.854,0.426-1.64,0.453-2.494,0.052C112.698,113.087,111.277,112.376,109.8,111.818
			 M171.651,123.164L171.651,123.164c0.024,2.624-0.375,5.188-0.968,7.743c-1.342,5.764-6.084,11.88-12.042,13.281
			c-4.906,1.153-7.904,1.05-12.885-0.28c-4.155-1.11-7.322-3.433-9.178-7.363c-2.136-4.529-3.299-9.28-2.976-14.315
			c0.19-2.986,1.428-5.474,3.926-7.203c1.9-1.317,4.1-1.943,6.348-2.352c4.908-0.888,9.842-1.002,14.787-0.407
			c2.302,0.278,4.584,0.687,6.744,1.592C169.527,115.584,171.611,118.681,171.651,123.164 M75.486,123.164L75.486,123.164
			c0.04-4.483,2.123-7.58,6.243-9.303c2.162-0.905,4.445-1.314,6.747-1.592c4.943-0.595,9.879-0.481,14.784,0.407
			c2.25,0.408,4.448,1.034,6.351,2.352c2.495,1.729,3.735,4.216,3.925,7.203c0.321,5.035-0.842,9.786-2.978,14.315
			c-1.855,3.931-5.022,6.253-9.176,7.363c-4.979,1.33-7.979,1.434-12.886,0.28c-5.958-1.401-10.7-7.518-12.04-13.281
			C75.862,128.353,75.461,125.788,75.486,123.164"/>
		<path opacity="0.75" fill="#0071BC" d="M88.476,112.234c-2.302,0.278-4.585,0.687-6.747,1.592
			c-4.12,1.723-6.203,4.817-6.243,9.301c-0.015,1.636,0.134,3.247,0.392,4.847l16.038-16.038
			C90.77,111.999,89.623,112.097,88.476,112.234"/>
		<path opacity="0.75" fill="#0071BC" d="M113.536,122.194c-0.19-2.985-1.43-5.473-3.925-7.201c-1.794-1.243-3.854-1.872-5.97-2.281
			l-24.423,24.426c2.242,3.365,5.519,6.131,9.279,7.017c4.907,1.153,7.907,1.049,12.886-0.28c4.153-1.111,7.321-3.433,9.176-7.367
			C112.693,131.98,113.856,127.231,113.536,122.194"/>
		<path opacity="0.85" fill="#0071BC" d="M103.26,112.641c-3.765-0.683-7.552-0.907-11.344-0.705l-16.038,16.038
			c0.156,0.968,0.353,1.933,0.578,2.897c0.492,2.126,1.451,4.299,2.761,6.266l24.423-24.426
			C103.513,112.689,103.387,112.665,103.26,112.641"/>
		<path opacity="0.75" fill="#0071BC" d="M143.877,112.694c-2.248,0.408-4.447,1.034-6.348,2.352
			c-2.498,1.729-3.735,4.216-3.926,7.203c-0.109,1.724-0.045,3.413,0.173,5.074l15.279-15.279
			C147.326,112.168,145.601,112.382,143.877,112.694"/>
		<path opacity="0.75" fill="#0071BC" d="M165.408,113.881c-1.337-0.561-2.719-0.93-4.125-1.198l-24.426,24.427
			c1.885,3.599,4.943,5.759,8.899,6.815c4.98,1.33,7.979,1.434,12.885,0.28c5.958-1.401,10.7-7.518,12.042-13.279
			c0.593-2.556,0.992-5.12,0.968-7.744C171.611,118.698,169.527,115.603,165.408,113.881"/>
		<path opacity="0.85" fill="#0071BC" d="M158.661,112.288c-3.207-0.387-6.411-0.472-9.605-0.244l-15.279,15.279
			c0.42,3.188,1.399,6.264,2.803,9.239c0.09,0.187,0.184,0.367,0.278,0.549l24.426-24.427
			C160.418,112.52,159.542,112.395,158.661,112.288"/>
	</g>
</g>
</svg>
